<svg width="1920" height="960" viewBox="0 0 1920 960" fill="none" xmlns="http://www.w3.org/2000/svg">
<g clip-path="url(#clip0_3_3166)">
<rect width="1920" height="960" fill="white"/>
<circle cx="0.330021" cy="2.43671" r="2.33002" fill="#D2D6DB"/>
<circle cx="1295.82" cy="-0.669979" r="2.33002" fill="#D2D6DB"/>
<circle cx="649.629" cy="2.43671" r="2.33002" fill="#D2D6DB"/>
<circle cx="0.330021" cy="331.746" r="2.33002" fill="#D2D6DB"/>
<circle cx="1295.82" cy="328.64" r="2.33002" fill="#D2D6DB"/>
<circle cx="649.629" cy="331.746" r="2.33002" fill="#D2D6DB"/>
<circle cx="0.330021" cy="661.056" r="2.33002" fill="#D2D6DB"/>
<circle cx="1295.82" cy="657.949" r="2.33002" fill="#D2D6DB"/>
<circle cx="649.629" cy="661.056" r="2.33002" fill="#D2D6DB"/>
<circle cx="0.330021" cy="167.091" r="2.33002" fill="#D2D6DB"/>
<circle cx="1295.82" cy="163.985" r="2.33002" fill="#D2D6DB"/>
<circle cx="649.629" cy="167.091" r="2.33002" fill="#D2D6DB"/>
<circle cx="0.330021" cy="496.401" r="2.33002" fill="#D2D6DB"/>
<circle cx="1295.82" cy="493.294" r="2.33002" fill="#D2D6DB"/>
<circle cx="649.629" cy="496.401" r="2.33002" fill="#D2D6DB"/>
<circle cx="0.330021" cy="825.711" r="2.33002" fill="#D2D6DB"/>
<circle cx="1295.82" cy="822.604" r="2.33002" fill="#D2D6DB"/>
<circle cx="649.629" cy="825.711" r="2.33002" fill="#D2D6DB"/>
<circle cx="0.330021" cy="84.7641" r="2.33002" fill="#D2D6DB"/>
<circle cx="1295.82" cy="81.6574" r="2.33002" fill="#D2D6DB"/>
<circle cx="649.629" cy="84.7641" r="2.33002" fill="#D2D6DB"/>
<circle cx="0.330021" cy="414.074" r="2.33002" fill="#D2D6DB"/>
<circle cx="1295.82" cy="410.967" r="2.33002" fill="#D2D6DB"/>
<circle cx="649.629" cy="414.074" r="2.33002" fill="#D2D6DB"/>
<circle cx="0.330021" cy="743.383" r="2.33002" fill="#D2D6DB"/>
<circle cx="1295.82" cy="740.277" r="2.33002" fill="#D2D6DB"/>
<circle cx="649.629" cy="743.383" r="2.33002" fill="#D2D6DB"/>
<circle cx="0.330021" cy="249.419" r="2.33002" fill="#D2D6DB"/>
<circle cx="1295.82" cy="246.312" r="2.33002" fill="#D2D6DB"/>
<circle cx="649.629" cy="249.419" r="2.33002" fill="#D2D6DB"/>
<circle cx="0.330021" cy="578.729" r="2.33002" fill="#D2D6DB"/>
<circle cx="1295.82" cy="575.622" r="2.33002" fill="#D2D6DB"/>
<circle cx="649.629" cy="578.729" r="2.33002" fill="#D2D6DB"/>
<circle cx="0.330021" cy="908.038" r="2.33002" fill="#D2D6DB"/>
<circle cx="1295.82" cy="904.931" r="2.33002" fill="#D2D6DB"/>
<circle cx="649.629" cy="908.038" r="2.33002" fill="#D2D6DB"/>
<circle cx="323.426" cy="2.43671" r="2.33002" fill="#D2D6DB"/>
<circle cx="1618.92" cy="-0.669979" r="2.33002" fill="#D2D6DB"/>
<circle cx="972.726" cy="2.43671" r="2.33002" fill="#D2D6DB"/>
<circle cx="323.426" cy="331.746" r="2.33002" fill="#D2D6DB"/>
<circle cx="1618.92" cy="328.64" r="2.33002" fill="#D2D6DB"/>
<circle cx="972.726" cy="331.746" r="2.33002" fill="#D2D6DB"/>
<circle cx="323.426" cy="661.056" r="2.33002" fill="#D2D6DB"/>
<circle cx="1618.92" cy="657.949" r="2.33002" fill="#D2D6DB"/>
<circle cx="972.726" cy="661.056" r="2.33002" fill="#D2D6DB"/>
<circle cx="323.426" cy="167.091" r="2.33002" fill="#D2D6DB"/>
<circle cx="1618.92" cy="163.985" r="2.33002" fill="#D2D6DB"/>
<circle cx="972.726" cy="167.091" r="2.33002" fill="#D2D6DB"/>
<circle cx="323.426" cy="496.401" r="2.33002" fill="#D2D6DB"/>
<circle cx="1618.92" cy="493.294" r="2.33002" fill="#D2D6DB"/>
<circle cx="972.726" cy="496.401" r="2.33002" fill="#D2D6DB"/>
<circle cx="323.426" cy="825.711" r="2.33002" fill="#D2D6DB"/>
<circle cx="1618.92" cy="822.604" r="2.33002" fill="#D2D6DB"/>
<circle cx="972.726" cy="825.711" r="2.33002" fill="#D2D6DB"/>
<circle cx="323.426" cy="84.7641" r="2.33002" fill="#D2D6DB"/>
<circle cx="1618.92" cy="81.6574" r="2.33002" fill="#D2D6DB"/>
<circle cx="972.726" cy="84.7641" r="2.33002" fill="#D2D6DB"/>
<circle cx="323.426" cy="414.074" r="2.33002" fill="#D2D6DB"/>
<circle cx="1618.92" cy="410.967" r="2.33002" fill="#D2D6DB"/>
<circle cx="972.726" cy="414.074" r="2.33002" fill="#D2D6DB"/>
<circle cx="323.426" cy="743.383" r="2.33002" fill="#D2D6DB"/>
<circle cx="1618.92" cy="740.277" r="2.33002" fill="#D2D6DB"/>
<circle cx="972.726" cy="743.383" r="2.33002" fill="#D2D6DB"/>
<circle cx="323.426" cy="249.419" r="2.33002" fill="#D2D6DB"/>
<circle cx="1618.92" cy="246.312" r="2.33002" fill="#D2D6DB"/>
<circle cx="972.726" cy="249.419" r="2.33002" fill="#D2D6DB"/>
<circle cx="323.426" cy="578.729" r="2.33002" fill="#D2D6DB"/>
<circle cx="1618.92" cy="575.622" r="2.33002" fill="#D2D6DB"/>
<circle cx="972.726" cy="578.729" r="2.33002" fill="#D2D6DB"/>
<circle cx="323.426" cy="908.038" r="2.33002" fill="#D2D6DB"/>
<circle cx="1618.92" cy="904.931" r="2.33002" fill="#D2D6DB"/>
<circle cx="972.726" cy="908.038" r="2.33002" fill="#D2D6DB"/>
<circle cx="81.1041" cy="2.43671" r="2.33002" fill="#D2D6DB"/>
<circle cx="1376.6" cy="-0.669979" r="2.33002" fill="#D2D6DB"/>
<circle cx="730.403" cy="2.43671" r="2.33002" fill="#D2D6DB"/>
<circle cx="81.1041" cy="331.746" r="2.33002" fill="#D2D6DB"/>
<circle cx="1376.6" cy="328.64" r="2.33002" fill="#D2D6DB"/>
<circle cx="730.403" cy="331.746" r="2.33002" fill="#D2D6DB"/>
<circle cx="81.1041" cy="661.056" r="2.33002" fill="#D2D6DB"/>
<circle cx="1376.6" cy="657.949" r="2.33002" fill="#D2D6DB"/>
<circle cx="730.403" cy="661.056" r="2.33002" fill="#D2D6DB"/>
<circle cx="81.1041" cy="167.091" r="2.33002" fill="#D2D6DB"/>
<circle cx="1376.6" cy="163.985" r="2.33002" fill="#D2D6DB"/>
<circle cx="730.403" cy="167.091" r="2.33002" fill="#D2D6DB"/>
<circle cx="81.1041" cy="496.401" r="2.33002" fill="#D2D6DB"/>
<circle cx="1376.6" cy="493.294" r="2.33002" fill="#D2D6DB"/>
<circle cx="730.403" cy="496.401" r="2.33002" fill="#D2D6DB"/>
<circle cx="81.1041" cy="825.711" r="2.33002" fill="#D2D6DB"/>
<circle cx="1376.6" cy="822.604" r="2.33002" fill="#D2D6DB"/>
<circle cx="730.403" cy="825.711" r="2.33002" fill="#D2D6DB"/>
<circle cx="81.1041" cy="84.7641" r="2.33002" fill="#D2D6DB"/>
<circle cx="1376.6" cy="81.6574" r="2.33002" fill="#D2D6DB"/>
<circle cx="730.403" cy="84.7641" r="2.33002" fill="#D2D6DB"/>
<circle cx="81.1041" cy="414.074" r="2.33002" fill="#D2D6DB"/>
<circle cx="1376.6" cy="410.967" r="2.33002" fill="#D2D6DB"/>
<circle cx="730.403" cy="414.074" r="2.33002" fill="#D2D6DB"/>
<circle cx="81.1041" cy="743.383" r="2.33002" fill="#D2D6DB"/>
<circle cx="1376.6" cy="740.277" r="2.33002" fill="#D2D6DB"/>
<circle cx="730.403" cy="743.383" r="2.33002" fill="#D2D6DB"/>
<circle cx="81.1041" cy="249.419" r="2.33002" fill="#D2D6DB"/>
<circle cx="1376.6" cy="246.312" r="2.33002" fill="#D2D6DB"/>
<circle cx="730.403" cy="249.419" r="2.33002" fill="#D2D6DB"/>
<circle cx="81.1041" cy="578.729" r="2.33002" fill="#D2D6DB"/>
<circle cx="1376.6" cy="575.622" r="2.33002" fill="#D2D6DB"/>
<circle cx="730.403" cy="578.729" r="2.33002" fill="#D2D6DB"/>
<circle cx="81.1041" cy="908.038" r="2.33002" fill="#D2D6DB"/>
<circle cx="1376.6" cy="904.931" r="2.33002" fill="#D2D6DB"/>
<circle cx="730.403" cy="908.038" r="2.33002" fill="#D2D6DB"/>
<circle cx="404.2" cy="2.43671" r="2.33002" fill="#D2D6DB"/>
<circle cx="1699.69" cy="-0.669979" r="2.33002" fill="#D2D6DB"/>
<circle cx="1053.5" cy="2.43671" r="2.33002" fill="#D2D6DB"/>
<circle cx="404.2" cy="331.746" r="2.33002" fill="#D2D6DB"/>
<circle cx="1699.69" cy="328.64" r="2.33002" fill="#D2D6DB"/>
<circle cx="1053.5" cy="331.746" r="2.33002" fill="#D2D6DB"/>
<circle cx="404.2" cy="661.056" r="2.33002" fill="#D2D6DB"/>
<circle cx="1699.69" cy="657.949" r="2.33002" fill="#D2D6DB"/>
<circle cx="1053.5" cy="661.056" r="2.33002" fill="#D2D6DB"/>
<circle cx="404.2" cy="167.091" r="2.33002" fill="#D2D6DB"/>
<circle cx="1699.69" cy="163.985" r="2.33002" fill="#D2D6DB"/>
<circle cx="1053.5" cy="167.091" r="2.33002" fill="#D2D6DB"/>
<circle cx="404.2" cy="496.401" r="2.33002" fill="#D2D6DB"/>
<circle cx="1699.69" cy="493.294" r="2.33002" fill="#D2D6DB"/>
<circle cx="1053.5" cy="496.401" r="2.33002" fill="#D2D6DB"/>
<circle cx="404.2" cy="825.711" r="2.33002" fill="#D2D6DB"/>
<circle cx="1699.69" cy="822.604" r="2.33002" fill="#D2D6DB"/>
<circle cx="1053.5" cy="825.711" r="2.33002" fill="#D2D6DB"/>
<circle cx="404.2" cy="84.7641" r="2.33002" fill="#D2D6DB"/>
<circle cx="1699.69" cy="81.6574" r="2.33002" fill="#D2D6DB"/>
<circle cx="1053.5" cy="84.7641" r="2.33002" fill="#D2D6DB"/>
<circle cx="404.2" cy="414.074" r="2.33002" fill="#D2D6DB"/>
<circle cx="1699.69" cy="410.967" r="2.33002" fill="#D2D6DB"/>
<circle cx="1053.5" cy="414.074" r="2.33002" fill="#D2D6DB"/>
<circle cx="404.2" cy="743.383" r="2.33002" fill="#D2D6DB"/>
<circle cx="1699.69" cy="740.277" r="2.33002" fill="#D2D6DB"/>
<circle cx="1053.5" cy="743.383" r="2.33002" fill="#D2D6DB"/>
<circle cx="404.2" cy="249.419" r="2.33002" fill="#D2D6DB"/>
<circle cx="1699.69" cy="246.312" r="2.33002" fill="#D2D6DB"/>
<circle cx="1053.5" cy="249.419" r="2.33002" fill="#D2D6DB"/>
<circle cx="404.2" cy="578.729" r="2.33002" fill="#D2D6DB"/>
<circle cx="1699.69" cy="575.622" r="2.33002" fill="#D2D6DB"/>
<circle cx="1053.5" cy="578.729" r="2.33002" fill="#D2D6DB"/>
<circle cx="404.2" cy="908.038" r="2.33002" fill="#D2D6DB"/>
<circle cx="1699.69" cy="904.931" r="2.33002" fill="#D2D6DB"/>
<circle cx="1053.5" cy="908.038" r="2.33002" fill="#D2D6DB"/>
<circle cx="161.878" cy="2.43671" r="2.33002" fill="#D2D6DB"/>
<circle cx="1457.37" cy="-0.669979" r="2.33002" fill="#D2D6DB"/>
<circle cx="811.177" cy="2.43671" r="2.33002" fill="#D2D6DB"/>
<circle cx="161.878" cy="331.746" r="2.33002" fill="#D2D6DB"/>
<circle cx="1457.37" cy="328.64" r="2.33002" fill="#D2D6DB"/>
<circle cx="811.177" cy="331.746" r="2.33002" fill="#D2D6DB"/>
<circle cx="161.878" cy="661.056" r="2.33002" fill="#D2D6DB"/>
<circle cx="1457.37" cy="657.949" r="2.33002" fill="#D2D6DB"/>
<circle cx="811.177" cy="661.056" r="2.33002" fill="#D2D6DB"/>
<circle cx="161.878" cy="167.091" r="2.33002" fill="#D2D6DB"/>
<circle cx="1457.37" cy="163.985" r="2.33002" fill="#D2D6DB"/>
<circle cx="811.177" cy="167.091" r="2.33002" fill="#D2D6DB"/>
<circle cx="161.878" cy="496.401" r="2.33002" fill="#D2D6DB"/>
<circle cx="1457.37" cy="493.294" r="2.33002" fill="#D2D6DB"/>
<circle cx="811.177" cy="496.401" r="2.33002" fill="#D2D6DB"/>
<circle cx="161.878" cy="825.711" r="2.33002" fill="#D2D6DB"/>
<circle cx="1457.37" cy="822.604" r="2.33002" fill="#D2D6DB"/>
<circle cx="811.177" cy="825.711" r="2.33002" fill="#D2D6DB"/>
<circle cx="161.878" cy="84.7641" r="2.33002" fill="#D2D6DB"/>
<circle cx="1457.37" cy="81.6574" r="2.33002" fill="#D2D6DB"/>
<circle cx="811.177" cy="84.7641" r="2.33002" fill="#D2D6DB"/>
<circle cx="161.878" cy="414.074" r="2.33002" fill="#D2D6DB"/>
<circle cx="1457.37" cy="410.967" r="2.33002" fill="#D2D6DB"/>
<circle cx="811.177" cy="414.074" r="2.33002" fill="#D2D6DB"/>
<circle cx="161.878" cy="743.383" r="2.33002" fill="#D2D6DB"/>
<circle cx="1457.37" cy="740.277" r="2.33002" fill="#D2D6DB"/>
<circle cx="811.177" cy="743.383" r="2.33002" fill="#D2D6DB"/>
<circle cx="161.878" cy="249.419" r="2.33002" fill="#D2D6DB"/>
<circle cx="1457.37" cy="246.312" r="2.33002" fill="#D2D6DB"/>
<circle cx="811.177" cy="249.419" r="2.33002" fill="#D2D6DB"/>
<circle cx="161.878" cy="578.729" r="2.33002" fill="#D2D6DB"/>
<circle cx="1457.37" cy="575.622" r="2.33002" fill="#D2D6DB"/>
<circle cx="811.177" cy="578.729" r="2.33002" fill="#D2D6DB"/>
<circle cx="161.878" cy="908.038" r="2.33002" fill="#D2D6DB"/>
<circle cx="1457.37" cy="904.931" r="2.33002" fill="#D2D6DB"/>
<circle cx="811.177" cy="908.038" r="2.33002" fill="#D2D6DB"/>
<circle cx="484.974" cy="2.43671" r="2.33002" fill="#D2D6DB"/>
<circle cx="1780.47" cy="-0.669979" r="2.33002" fill="#D2D6DB"/>
<circle cx="1134.27" cy="2.43671" r="2.33002" fill="#D2D6DB"/>
<circle cx="484.974" cy="331.746" r="2.33002" fill="#D2D6DB"/>
<circle cx="1780.47" cy="328.64" r="2.33002" fill="#D2D6DB"/>
<circle cx="1134.27" cy="331.746" r="2.33002" fill="#D2D6DB"/>
<circle cx="484.974" cy="661.056" r="2.33002" fill="#D2D6DB"/>
<circle cx="1780.47" cy="657.949" r="2.33002" fill="#D2D6DB"/>
<circle cx="1134.27" cy="661.056" r="2.33002" fill="#D2D6DB"/>
<circle cx="484.974" cy="167.091" r="2.33002" fill="#D2D6DB"/>
<circle cx="1780.47" cy="163.985" r="2.33002" fill="#D2D6DB"/>
<circle cx="1134.27" cy="167.091" r="2.33002" fill="#D2D6DB"/>
<circle cx="484.974" cy="496.401" r="2.33002" fill="#D2D6DB"/>
<circle cx="1780.47" cy="493.294" r="2.33002" fill="#D2D6DB"/>
<circle cx="1134.27" cy="496.401" r="2.33002" fill="#D2D6DB"/>
<circle cx="484.974" cy="825.711" r="2.33002" fill="#D2D6DB"/>
<circle cx="1780.47" cy="822.604" r="2.33002" fill="#D2D6DB"/>
<circle cx="1134.27" cy="825.711" r="2.33002" fill="#D2D6DB"/>
<circle cx="484.974" cy="84.7641" r="2.33002" fill="#D2D6DB"/>
<circle cx="1780.47" cy="81.6574" r="2.33002" fill="#D2D6DB"/>
<circle cx="1134.27" cy="84.7641" r="2.33002" fill="#D2D6DB"/>
<circle cx="484.974" cy="414.074" r="2.33002" fill="#D2D6DB"/>
<circle cx="1780.47" cy="410.967" r="2.33002" fill="#D2D6DB"/>
<circle cx="1134.27" cy="414.074" r="2.33002" fill="#D2D6DB"/>
<circle cx="484.974" cy="743.383" r="2.33002" fill="#D2D6DB"/>
<circle cx="1780.47" cy="740.277" r="2.33002" fill="#D2D6DB"/>
<circle cx="1134.27" cy="743.383" r="2.33002" fill="#D2D6DB"/>
<circle cx="484.974" cy="249.419" r="2.33002" fill="#D2D6DB"/>
<circle cx="1780.47" cy="246.312" r="2.33002" fill="#D2D6DB"/>
<circle cx="1134.27" cy="249.419" r="2.33002" fill="#D2D6DB"/>
<circle cx="484.974" cy="578.729" r="2.33002" fill="#D2D6DB"/>
<circle cx="1780.47" cy="575.622" r="2.33002" fill="#D2D6DB"/>
<circle cx="1134.27" cy="578.729" r="2.33002" fill="#D2D6DB"/>
<circle cx="484.974" cy="908.038" r="2.33002" fill="#D2D6DB"/>
<circle cx="1780.47" cy="904.931" r="2.33002" fill="#D2D6DB"/>
<circle cx="1134.27" cy="908.038" r="2.33002" fill="#D2D6DB"/>
<circle cx="242.652" cy="2.43671" r="2.33002" fill="#D2D6DB"/>
<circle cx="1538.14" cy="-0.669979" r="2.33002" fill="#D2D6DB"/>
<circle cx="891.951" cy="2.43671" r="2.33002" fill="#D2D6DB"/>
<circle cx="242.652" cy="331.746" r="2.33002" fill="#D2D6DB"/>
<circle cx="1538.14" cy="328.64" r="2.33002" fill="#D2D6DB"/>
<circle cx="891.951" cy="331.746" r="2.33002" fill="#D2D6DB"/>
<circle cx="242.652" cy="661.056" r="2.33002" fill="#D2D6DB"/>
<circle cx="1538.14" cy="657.949" r="2.33002" fill="#D2D6DB"/>
<circle cx="891.951" cy="661.056" r="2.33002" fill="#D2D6DB"/>
<circle cx="242.652" cy="167.091" r="2.33002" fill="#D2D6DB"/>
<circle cx="1538.14" cy="163.985" r="2.33002" fill="#D2D6DB"/>
<circle cx="891.951" cy="167.091" r="2.33002" fill="#D2D6DB"/>
<circle cx="242.652" cy="496.401" r="2.33002" fill="#D2D6DB"/>
<circle cx="1538.14" cy="493.294" r="2.33002" fill="#D2D6DB"/>
<circle cx="891.951" cy="496.401" r="2.33002" fill="#D2D6DB"/>
<circle cx="242.652" cy="825.711" r="2.33002" fill="#D2D6DB"/>
<circle cx="1538.14" cy="822.604" r="2.33002" fill="#D2D6DB"/>
<circle cx="891.951" cy="825.711" r="2.33002" fill="#D2D6DB"/>
<circle cx="242.652" cy="84.7641" r="2.33002" fill="#D2D6DB"/>
<circle cx="1538.14" cy="81.6574" r="2.33002" fill="#D2D6DB"/>
<circle cx="891.951" cy="84.7641" r="2.33002" fill="#D2D6DB"/>
<circle cx="242.652" cy="414.074" r="2.33002" fill="#D2D6DB"/>
<circle cx="1538.14" cy="410.967" r="2.33002" fill="#D2D6DB"/>
<circle cx="891.951" cy="414.074" r="2.33002" fill="#D2D6DB"/>
<circle cx="242.652" cy="743.383" r="2.33002" fill="#D2D6DB"/>
<circle cx="1538.14" cy="740.277" r="2.33002" fill="#D2D6DB"/>
<circle cx="891.951" cy="743.383" r="2.33002" fill="#D2D6DB"/>
<circle cx="242.652" cy="249.419" r="2.33002" fill="#D2D6DB"/>
<circle cx="1538.14" cy="246.312" r="2.33002" fill="#D2D6DB"/>
<circle cx="891.951" cy="249.419" r="2.33002" fill="#D2D6DB"/>
<circle cx="242.652" cy="578.729" r="2.33002" fill="#D2D6DB"/>
<circle cx="1538.14" cy="575.622" r="2.33002" fill="#D2D6DB"/>
<circle cx="891.951" cy="578.729" r="2.33002" fill="#D2D6DB"/>
<circle cx="242.652" cy="908.038" r="2.33002" fill="#D2D6DB"/>
<circle cx="1538.14" cy="904.931" r="2.33002" fill="#D2D6DB"/>
<circle cx="891.951" cy="908.038" r="2.33002" fill="#D2D6DB"/>
<circle cx="565.748" cy="2.43671" r="2.33002" fill="#D2D6DB"/>
<circle cx="1861.24" cy="-0.669979" r="2.33002" fill="#D2D6DB"/>
<circle cx="1215.05" cy="2.43671" r="2.33002" fill="#D2D6DB"/>
<circle cx="565.748" cy="331.746" r="2.33002" fill="#D2D6DB"/>
<circle cx="1861.24" cy="328.64" r="2.33002" fill="#D2D6DB"/>
<circle cx="1215.05" cy="331.746" r="2.33002" fill="#D2D6DB"/>
<circle cx="565.748" cy="661.056" r="2.33002" fill="#D2D6DB"/>
<circle cx="1861.24" cy="657.949" r="2.33002" fill="#D2D6DB"/>
<circle cx="1215.05" cy="661.056" r="2.33002" fill="#D2D6DB"/>
<circle cx="565.748" cy="167.091" r="2.33002" fill="#D2D6DB"/>
<circle cx="1861.24" cy="163.985" r="2.33002" fill="#D2D6DB"/>
<circle cx="1215.05" cy="167.091" r="2.33002" fill="#D2D6DB"/>
<circle cx="565.748" cy="496.401" r="2.33002" fill="#D2D6DB"/>
<circle cx="1861.24" cy="493.294" r="2.33002" fill="#D2D6DB"/>
<circle cx="1215.05" cy="496.401" r="2.33002" fill="#D2D6DB"/>
<circle cx="565.748" cy="825.711" r="2.33002" fill="#D2D6DB"/>
<circle cx="1861.24" cy="822.604" r="2.33002" fill="#D2D6DB"/>
<circle cx="1215.05" cy="825.711" r="2.33002" fill="#D2D6DB"/>
<circle cx="565.748" cy="84.7641" r="2.33002" fill="#D2D6DB"/>
<circle cx="1861.24" cy="81.6574" r="2.33002" fill="#D2D6DB"/>
<circle cx="1215.05" cy="84.7641" r="2.33002" fill="#D2D6DB"/>
<circle cx="565.748" cy="414.074" r="2.33002" fill="#D2D6DB"/>
<circle cx="1861.24" cy="410.967" r="2.33002" fill="#D2D6DB"/>
<circle cx="1215.05" cy="414.074" r="2.33002" fill="#D2D6DB"/>
<circle cx="565.748" cy="743.383" r="2.33002" fill="#D2D6DB"/>
<circle cx="1861.24" cy="740.277" r="2.33002" fill="#D2D6DB"/>
<circle cx="1215.05" cy="743.383" r="2.33002" fill="#D2D6DB"/>
<circle cx="565.748" cy="249.419" r="2.33002" fill="#D2D6DB"/>
<circle cx="1861.24" cy="246.312" r="2.33002" fill="#D2D6DB"/>
<circle cx="1215.05" cy="249.419" r="2.33002" fill="#D2D6DB"/>
<circle cx="565.748" cy="578.729" r="2.33002" fill="#D2D6DB"/>
<circle cx="1861.24" cy="575.622" r="2.33002" fill="#D2D6DB"/>
<circle cx="1215.05" cy="578.729" r="2.33002" fill="#D2D6DB"/>
<circle cx="565.748" cy="908.038" r="2.33002" fill="#D2D6DB"/>
<circle cx="1861.24" cy="904.931" r="2.33002" fill="#D2D6DB"/>
<circle cx="1215.05" cy="908.038" r="2.33002" fill="#D2D6DB"/>
</g>
<defs>
<clipPath id="clip0_3_3166">
<rect width="1920" height="960" fill="white"/>
</clipPath>
</defs>
</svg>
